<svg height="512" viewBox="0 0 512 512" width="512" xmlns="http://www.w3.org/2000/svg"><g id="Virus-2" data-name="Virus"><g id="Flat"><path d="m119.992 208a7.963 7.963 0 0 1 -4.232-1.217l-64-40a8 8 0 0 1 8.48-13.568l64 40a8 8 0 0 1 -4.248 14.785z" fill="#79d47f"/><path d="m232.007 480a8.007 8.007 0 0 1 -7.817-9.737l16-72a8 8 0 1 1 15.62 3.47l-16 72a8.005 8.005 0 0 1 -7.803 6.267z" fill="#79d47f"/><path d="m392.006 208a8 8 0 0 1 -3.584-15.157l48-24a8 8 0 1 1 7.156 14.31l-48 24a7.976 7.976 0 0 1 -3.572.847z" fill="#79d47f"/><path d="m440 320a7.989 7.989 0 0 1 -2.969-.574l-40-16a8 8 0 1 1 5.942-14.856l40 16a8 8 0 0 1 -2.973 15.43z" fill="#79d47f"/><path d="m80 344a8 8 0 0 1 -2.973-15.43l40-16a8 8 0 0 1 5.942 14.856l-40 16a7.992 7.992 0 0 1 -2.969.574z" fill="#79d47f"/><path d="m183.994 432a8 8 0 0 1 -7.149-11.58l16-32a8 8 0 0 1 14.31 7.156l-16 32a8 8 0 0 1 -7.161 4.424z" fill="#96ea8c"/><circle cx="32" cy="144" fill="#79d47f" r="8"/><circle cx="464" cy="160" fill="#79d47f" r="8"/><circle cx="336" cy="64" fill="#b0ed98" r="8"/><circle cx="224" cy="496" fill="#79d47f" r="8"/><circle cx="48" cy="352" fill="#79d47f" r="8"/><path d="m511.926 413.091c-1.444-28.429-24.854-51.723-53.3-53.03-.533-.119-24.1.524-42.768-18.141l-21.942-21.942a150.114 150.114 0 0 0 13.223-47.769 133.154 133.154 0 0 1 48.192 12.159c25.45 11.685 54.662-5.935 56.568-33.545a40 40 0 0 0 -39.899-42.823c-19.513 0-25.545 14.183-67.416 15.876a151.907 151.907 0 0 0 -25.821-57.5c18.752-16.075 28.211-36.786 56.154-38.462l.548-.036c41.1-2.917 59.373-52.915 30.48-81.814-29.659-29.667-79.773-9.31-81.88 31.424l-.023.509a40.038 40.038 0 0 1 -11.575 26.793l-27.767 27.769a151.957 151.957 0 0 0 -23.174-13.715l13.633-27.266a8 8 0 1 0 -14.31-7.156l-14.136 28.272a150.9 150.9 0 0 0 -18.713-5.305c.09-.757-1.193-23.234 11.883-49.7 12.588-25.489-4.918-55.648-33.059-57.589a40 40 0 0 0 -42.824 39.9c0 18.848 14.928 29.173 15.957 64.844a151.285 151.285 0 0 0 -30.688 6.484l-15.2-15.2a62.646 62.646 0 0 1 -18.129-42.75c-2.177-47.462-60.711-71.793-95.533-36.978-34.566 34.557-10.922 93.341 36.948 95.542l.691.028c29.918 1.024 44.162 20.852 46.562 22.583a152.262 152.262 0 0 0 -18.381 16.364l-20.57-20.57a8 8 0 0 0 -11.314 11.314l21.416 21.416a152 152 0 0 0 -28.37 60.923c-.757-.09-23.233 1.193-49.7-11.883-25.489-12.588-55.648 4.917-57.589 33.059-2.141 30.959 29.9 51.951 57.131 38.924 15.789-7.553 31.79-11.6 47.612-12.061a150.992 150.992 0 0 0 25.314 69.232l-29.631 29.631c-12.221 12.221-27.631 13.553-28.05 13.682-37.689 5.9-54.506 52.852-26.665 81.1 29.193 29.625 79.95 10.439 82.122-31.119l.027-.6c1.324-32.849 25.032-45.308 35.09-57.71a152.131 152.131 0 0 0 119.56 29.407c2.914 18.437 2.309 38.028-1.811 58.344-7.751 38.209 38.335 63.51 66.49 37.231a40.029 40.029 0 0 0 6.486-50.68 197.81 197.81 0 0 1 -25.231-60.957 151.1 151.1 0 0 0 37.92-29.191l15.458 15.459a62.668 62.668 0 0 1 18.138 42.764c1.307 28.443 24.6 51.854 53.029 53.3a56.034 56.034 0 0 0 58.837-58.841z" fill="#b0ed98"/><path d="m393.231 151.989c11.212-11.984 21.741-22.88 41.686-24.076l.548-.036c41.1-2.917 59.373-52.915 30.48-81.814-20.7-20.7-51.358-17.039-68.711.909a305.71 305.71 0 0 1 -4.003 105.017z" fill="#96ea8c"/><path d="m57.455 389.577c-26.607 14.159-35.443 51.965-11.644 76.113 29.193 29.625 79.95 10.439 82.122-31.119l.027-.6c.967-23.993 13.872-37.1 24.681-47.264a306.52 306.52 0 0 1 -95.186 2.87z" fill="#96ea8c"/><path d="m511.926 413.091c-1.444-28.429-24.854-51.723-53.3-53.03-.533-.119-24.1.524-42.768-18.141l-21.942-21.942a150.114 150.114 0 0 0 13.223-47.769 133.154 133.154 0 0 1 48.192 12.159c25.45 11.685 54.662-5.935 56.568-33.545a40 40 0 0 0 -39.899-42.823c-19.513 0-25.545 14.183-67.416 15.876a151.765 151.765 0 0 0 -18.133-45.876 304.6 304.6 0 0 1 -214.719 204.488 152.2 152.2 0 0 0 110.878 23.183c2.914 18.437 2.309 38.028-1.811 58.344-7.751 38.209 38.335 63.51 66.49 37.231a40.029 40.029 0 0 0 6.486-50.68 197.81 197.81 0 0 1 -25.231-60.966 151.1 151.1 0 0 0 37.92-29.191l15.458 15.459a62.668 62.668 0 0 1 18.138 42.764c1.307 28.443 24.6 51.854 53.029 53.3a56.034 56.034 0 0 0 58.837-58.841z" fill="#96ea8c"/><g fill="#79d47f"><circle cx="472" cy="408" r="8"/><circle cx="448" cy="432" r="8"/><circle cx="440" cy="400" r="8"/><circle cx="432" cy="80" r="8"/><circle cx="112" cy="40" r="8"/><circle cx="128" cy="72" r="8"/><path d="m304 256a40.045 40.045 0 0 1 -40-40 8 8 0 0 1 16 0 24 24 0 1 0 24-24 8 8 0 0 1 0-16 40 40 0 0 1 0 80z"/><path d="m208 344a32.036 32.036 0 0 1 -32-32 8 8 0 0 1 16 0 16 16 0 1 0 16-16 8 8 0 0 1 0-16 32 32 0 0 1 0 64z"/><path d="m196 232a28.032 28.032 0 0 1 -28-28 8 8 0 0 1 16 0 12 12 0 1 0 12-12 8 8 0 0 1 0-16 28 28 0 0 1 0 56z"/><path d="m324 328a28.032 28.032 0 0 1 -28-28 8 8 0 0 1 16 0 12 12 0 1 0 12-12 8 8 0 0 1 0-16 28 28 0 0 1 0 56z"/><circle cx="280" cy="344" r="8"/><circle cx="280" cy="152" r="8"/><circle cx="216" cy="256" r="8"/><circle cx="232" cy="360" r="8"/><circle cx="240" cy="168" r="8"/><circle cx="88" cy="424" r="8"/></g><circle cx="264" cy="40" fill="#def4d7" r="24"/><circle cx="36" cy="244" fill="#def4d7" r="20"/><circle cx="148" cy="252" fill="#def4d7" r="20"/><circle cx="260" cy="92" fill="#def4d7" r="12"/><circle cx="308" cy="220" fill="#def4d7" r="12"/></g></g></svg>